<?xml version="1.0" encoding="UTF-8"?>
<svg id="Layer_1" data-name="Layer 1" xmlns="http://www.w3.org/2000/svg" version="1.1" viewBox="0 0 800 800">
  <defs>
    <style>
      .cls-2 {
        fill: #fbaf17;
      }

      .cls-2, .cls-3, .cls-4, .cls-5 {
        stroke-width: 0px;
      }

      .cls-3 {
        fill: #fcd78d;
      }

      .cls-4 {
        fill: #fcc452;
      }

    </style>
  </defs>
  <g>
    <path class="cls-2" d="M165.82,591.07c1.63-4.38,1.49-9.07,2.33-13.6,4.91-26.45,16.16-50.21,30.83-72.48,10.28-15.6,21.67-30.48,30.53-47.01,9.73-18.15,16.87-37.13,18.94-57.73,1.37-13.7.34-27.33-2.16-40.85-2.46-13.33-5.01-26.64-7.45-39.98-.74-4.08-.5-8.19.35-12.24,1.64-7.85,7.24-12.72,15.26-13.3,2.85-.21,5.74-.35,8.51.37,2.16.56,2.69-.14,3.02-2.18,2.83-17.43,5.8-34.84,8.7-52.25,5.31-31.92,10.53-63.88,20.81-94.68,9.97-29.91,25.52-56.91,44.21-82.16,13.93-18.82,29.11-36.58,45.57-53.24,4.55-4.6,9.96-7.72,16.1-9.65h4.11c3.21,1.3,6.61,2.09,9.58,4.06,8.14,5.39,10.93,12.31,8.57,21.78-1.17,4.67-3.08,9.05-5.14,13.37-12.17,25.5-15.79,52.36-11.18,80.02,10.54,63.13,35.23,120.14,75.11,170.47,15.8,19.95,32.57,39.06,49,58.47,27.86,32.92,52.92,67.73,71.6,106.81,14.91,31.19,25.07,63.8,28.86,98.21,6.54,59.31-4.79,114.46-40.11,163.43-25.47,35.33-58.62,60.96-99.87,75.6-10.42,3.7-21.12,6.51-32.29,6.88,25.17-11.42,49.1-25.08,71.21-41.62,29.28-21.91,48.97-51.2,62.35-84.93,12.33-31.09,17.42-63.42,15.54-96.78-1.61-28.61-9.74-55.44-22.07-81.26-24.36-50.98-56.28-96.63-95.33-137.37-32.12-33.51-60.23-69.96-81.86-111.18-19.48-37.12-32.85-76.29-39.63-117.68-1.72-10.49-.39-21.2-2.41-31.77-.92-.27-1.09.78-1.47,1.36-28.9,43.86-47.52,91.65-55.05,143.7-2.45,16.95-3.77,33.96-4.16,51.08-.76,33.28,2.3,66.24,7.49,99.06.15.98.16,1.97.31,3.98-10.48-13.17-20.37-25.6-30.74-38.62-1.3,7.79-1.68,14.99-2.25,22.16-1.33,16.81-1.89,33.79-8.36,49.68-8.1,19.86-17.79,38.94-28.44,57.56-9.75,17.05-21.66,32.69-32.14,49.24-17.71,27.97-25.72,58.77-23.92,91.8,2.23,40.82,17.93,76.06,45.46,106.23,22.08,24.19,47.5,44.26,74.79,62.14,1.28.84,3.37,1.07,3.4,3.28-3.77.19-7.13-1.46-10.55-2.56-26.11-8.4-49.01-22.45-69.94-39.99-19.95-16.73-35.8-36.63-47.07-60.12-9.81-20.45-15.77-42.02-18.18-64.56-.43-4.04-.2-8.14-.77-12.18v-2.05c.76-1.7.16-3.5.35-5.24-.22-5.78.45-11.58-.35-17.35v-4.11Z"/>
    <path class="cls-4" d="M165.82,595.18c1.41,2.07.55,4.39.64,6.58.15,3.75.01,7.51,0,11.26-.23.27-.44.25-.63-.04v-17.8Z"/>
    <path class="cls-3" d="M165.82,612.98c.21,0,.42.01.63.04-.22,1.58.73,3.32-.63,4.75v-4.79Z"/>
    <path class="cls-2" d="M484.03,751.82c1.46-2.86,2.8-5.45,4.11-8.04,10.23-20.25,20.29-40.56,25.84-62.74,6.67-26.7,3.98-51.99-11.17-75.46-4.09-6.34-8.86-7.31-14.89-2.84-14.29,10.6-28.51,21.29-42.85,31.83-8.72,6.41-20.32,3.08-24-6.76-1.29-3.44-.97-6.95-.13-10.44,3.97-16.5,8.13-32.95,10.89-49.72,6.8-41.37.27-79.67-25.67-113.62-.28-.36-.56-.72-.82-1.09-1.74-2.38-3.85-3.99-6.98-2.95-3,1-4.16,3.31-4.25,6.34-.27,9.59-1.37,19.09-3.35,28.49-6.16,29.19-20.11,54.33-39.92,76.37-12.67,14.09-26.95,26.62-39.79,40.54-18.94,20.53-30.1,44.54-30.65,72.69-.48,24.63,7.07,47.12,20.39,67.74,1.58,2.45,3.24,4.84,4.63,7.48-3.83-1.39-6.69-4.1-9.33-6.89-16.92-17.86-27.21-38.85-29.61-63.52-3.84-39.38,9.48-73.01,34.24-102.85,9.99-12.05,21.61-22.57,32.07-34.19,14.04-15.61,26.4-32.33,33.97-52.13,5.4-14.13,6.47-28.56,2.64-43.29-1.67-6.43-2.63-12.98-2.22-19.64.85-13.87,7.58-19.09,22.53-17.78,6.98.61,12.43,4.81,17.38,9.52,2.9,2.76,5.66,5.65,8.03,8.87,11.93,16.24,25.01,31.7,33.03,50.54,8.05,18.9,12.39,38.54,13.1,59.05.53,15.24-.86,30.27-4.22,45.13-.43,1.92-.76,3.89,1.29,5.23,1.94,1.27,3.8.62,5.45-.47,4.96-3.3,8.89-7.82,13.52-11.52,3.74-2.99,7.46-6.01,11.78-8.18,7.03-3.53,12.77-2.94,17.97,2.91,10.44,11.74,17.89,25.37,22.34,40.38,10.69,36.09,5.06,70.33-12.82,102.91-7.53,13.73-17.45,25.6-29.12,36.02-.88.79-1.61,1.86-3.39,2.08Z"/>
  </g>
</svg>